<svg width="118" height="41" viewBox="0 0 118 41" fill="none" xmlns="http://www.w3.org/2000/svg">
<g clip-path="url(#clip0_270_1615)">
<path d="M109.901 0H106.434V8.09858H109.901V0Z" fill="#04D9FF"/>
<path d="M106.434 8.09863H98.335V11.5663H106.434V8.09863Z" fill="#D3D3D3"/>
<path d="M109.907 11.566H106.434V19.6813H109.907V11.566Z" fill="#9FF0FF"/>
<path d="M117.999 8.09863H109.9V11.5663H117.999V8.09863Z" fill="#56E5FF"/>
<path d="M4.55301 28.7707V21.9134H15.4959V18.1006H4.55301V11.2767H16.3419V7.45837H0V32.5891H16.4421V28.7707H4.55301Z" fill="white"/>
<path d="M33.3705 7.4613V16.8623H33.1868C32.9586 16.4059 32.6358 15.9161 32.2183 15.404C31.8009 14.8808 31.2331 14.43 30.5207 14.0626C29.8138 13.6897 28.901 13.5004 27.7989 13.5004C26.3517 13.5004 25.0381 13.8734 23.8581 14.6192C22.6837 15.3539 21.7486 16.4449 21.0529 17.892C20.3627 19.3336 20.0176 21.0981 20.0176 23.1909C20.0176 25.2615 20.3571 27.0203 21.0361 28.4675C21.7152 29.9147 22.6392 31.0223 23.8136 31.7793C24.9825 32.5419 26.3072 32.9204 27.7877 32.9204C28.8676 32.9204 29.7637 32.7422 30.4762 32.3804C31.1886 32.0242 31.7563 31.5901 32.1905 31.0835C32.6246 30.5659 32.9586 30.0816 33.1868 29.6197H33.454V32.5919H37.8233V7.4613H33.3705ZM32.9419 26.3691C32.5968 27.2875 32.0959 28 31.4335 28.5176C30.7711 29.0241 29.9641 29.2802 29.029 29.2802C28.0549 29.2802 27.2311 29.0186 26.5577 28.4954C25.8953 27.961 25.3944 27.2374 25.0493 26.3246C24.7153 25.3951 24.5483 24.3487 24.5483 23.1687C24.5483 21.9998 24.7153 20.959 25.0493 20.0517C25.3888 19.1444 25.8842 18.432 26.5465 17.9199C27.2089 17.4022 28.0382 17.1462 29.029 17.1462C29.9808 17.1462 30.7879 17.3911 31.4446 17.8921C32.107 18.393 32.6024 19.0887 32.9419 19.9904C33.2814 20.8921 33.454 21.9497 33.454 23.1687C33.454 24.382 33.2814 25.4563 32.9419 26.3691Z" fill="white"/>
<path d="M55.218 13.7453V16.8622H54.9731C54.756 16.4058 54.4331 15.916 54.0046 15.4039C53.5815 14.8807 53.0082 14.4299 52.2847 14.0625C51.5778 13.6896 50.6705 13.5004 49.5629 13.5004C48.1157 13.5004 46.8021 13.8733 45.6221 14.6191C44.4477 15.3539 43.5126 16.4337 42.8168 17.8697C42.1266 19.2891 41.7871 21.0368 41.7871 23.1074C41.7871 25.1612 42.1266 26.87 42.8168 28.2337C43.5126 29.5918 44.4421 30.6104 45.611 31.3005C46.791 31.9796 48.1046 32.3136 49.5517 32.3136C50.6316 32.3136 51.5277 32.1577 52.2401 31.8293C52.9582 31.5065 53.537 31.1002 53.9656 30.6104C54.4109 30.1317 54.7448 29.6641 54.9731 29.2077H55.1957V32.7756C55.1957 34.1671 54.7838 35.1634 53.9545 35.7701C53.1307 36.3823 52.0899 36.6885 50.8264 36.6885C49.9358 36.6885 49.1955 36.566 48.6055 36.3211C48.0266 36.0818 47.5647 35.7812 47.2196 35.4139C46.8745 35.052 46.6129 34.6903 46.4347 34.3229L42.4328 35.2914C42.7055 36.1653 43.1897 36.9612 43.88 37.6848C44.5757 38.4028 45.4997 38.9761 46.6407 39.3991C47.7873 39.8277 49.1565 40.0504 50.754 40.0504C52.4461 40.0504 53.96 39.7888 55.2959 39.2655C56.6262 38.7423 57.6781 37.952 58.4463 36.9C59.2144 35.8425 59.5984 34.5066 59.5984 32.898V13.7453H55.218ZM54.7059 26.1742C54.3608 27.0258 53.8598 27.6938 53.1975 28.1502C52.5351 28.6066 51.7336 28.8348 50.793 28.8348C49.8189 28.8348 48.9951 28.601 48.3216 28.1279C47.6593 27.6436 47.1583 26.9702 46.8132 26.113C46.4793 25.2447 46.3123 24.2372 46.3123 23.0851C46.3123 21.944 46.4793 20.931 46.8132 20.0349C47.1528 19.1388 47.6481 18.4319 48.3105 17.9198C48.9729 17.4022 49.8022 17.1461 50.793 17.1461C51.7503 17.1461 52.5518 17.391 53.2086 17.892C53.871 18.3818 54.3719 19.072 54.7059 19.9681C55.0454 20.8587 55.218 21.894 55.218 23.0851C55.218 24.2873 55.0454 25.317 54.7059 26.1742Z" fill="white"/>
<path d="M98.6072 23.6668C97.7389 22.8319 96.4141 22.2253 94.6274 21.8412L91.4158 21.151C90.4585 20.9339 89.7739 20.6501 89.3564 20.305C88.9445 19.9654 88.7441 19.5201 88.7553 18.9691C88.7441 18.329 89.0503 17.8114 89.6736 17.4106C90.3026 17.0099 91.0819 16.8095 92.0058 16.8095C92.6904 16.8095 93.2693 16.9208 93.748 17.1435C94.2211 17.3605 94.5996 17.65 94.8779 18.0118C95.1618 18.3735 95.3621 18.7576 95.479 19.1639L99.5255 18.7242C99.225 17.1212 98.4346 15.8466 97.16 14.9059C95.8909 13.9652 94.1488 13.4977 91.9446 13.4977C90.4362 13.4977 89.1059 13.737 87.9537 14.2101C86.8071 14.6777 85.9166 15.34 85.2709 16.1972C84.6308 17.0488 84.3136 18.0507 84.3247 19.214C84.3136 20.5888 84.7421 21.7243 85.6104 22.626C86.4787 23.5165 87.8146 24.1511 89.6236 24.5296L92.8407 25.2031C93.7035 25.3923 94.3435 25.6595 94.7554 26.0101C95.1673 26.3664 95.3788 26.8117 95.3788 27.3515C95.3788 27.9861 95.056 28.526 94.4103 28.9546C93.7703 29.3887 92.9242 29.6058 91.8667 29.6058C90.8481 29.6058 90.0188 29.3887 89.3787 28.9546C88.7386 28.526 88.3211 27.8803 88.1263 27.0287L83.7959 27.4462C84.0687 29.1828 84.9036 30.5353 86.3118 31.5094C87.72 32.4723 89.5735 32.9566 91.8834 32.9566C93.453 32.9566 94.8445 32.7061 96.0523 32.194C97.2657 31.6875 98.2064 30.9862 98.8855 30.0845C99.5756 29.1772 99.9207 28.1308 99.9319 26.9452C99.9207 25.5927 99.481 24.5017 98.6072 23.6668Z" fill="white"/>
<path d="M80.8768 23.0239C80.8768 21.3708 80.6486 19.9458 80.1866 18.7491C79.7302 17.5469 79.1012 16.5617 78.2997 15.7824C77.5038 15.0032 76.5909 14.4299 75.5501 14.0625C74.5204 13.6896 73.4238 13.5004 72.2606 13.5004C70.4627 13.5004 68.8986 13.9122 67.5628 14.7416C66.2325 15.5598 65.1917 16.6953 64.4458 18.1758C63.7111 19.6397 63.3438 21.3429 63.3438 23.2799C63.3438 25.2503 63.7111 26.9646 64.4458 28.4173C65.1805 29.8701 66.2325 30.9888 67.6018 31.7792C68.9766 32.5696 70.6074 32.9592 72.4943 32.9592C73.9582 32.9592 75.2607 32.731 76.3961 32.2969C77.5316 31.846 78.4667 31.2171 79.1958 30.41C79.9305 29.5918 80.4315 28.6344 80.6931 27.5379L76.5464 27.0704C76.346 27.5992 76.0566 28.05 75.6725 28.4062C75.2885 28.768 74.8321 29.0407 74.3088 29.23C73.7856 29.4081 73.2012 29.4972 72.5555 29.4972C71.5926 29.4972 70.7466 29.2968 70.0286 28.8849C69.3106 28.4674 68.7484 27.8719 68.3476 27.0926C67.958 26.3301 67.7632 25.434 67.752 24.382H80.8768V23.0239ZM67.7576 21.3874C67.7966 20.6471 67.9858 19.9681 68.3254 19.3391C68.7094 18.6267 69.2437 18.0534 69.9284 17.6248C70.6186 17.1795 71.4145 16.9624 72.3218 16.9624C73.1734 16.9624 73.9192 17.1461 74.5593 17.5302C75.205 17.9198 75.7059 18.4486 76.0677 19.1221C76.4239 19.7844 76.6076 20.5414 76.6187 21.3874L67.7576 21.3874Z" fill="white"/>
</g>
<defs>
<clipPath id="clip0_270_1615">
<rect width="118" height="40.0504" fill="white"/>
</clipPath>
</defs>
</svg>
