<svg width="28" height="28" viewBox="0 0 28 28" fill="none" xmlns="http://www.w3.org/2000/svg">
<g clip-path="url(#clip0_4_27)">
<path d="M12.9999 14.0892C10.7777 9.77805 11.9777 5.91139 13.0777 3.78917C13.2888 3.38917 12.9443 2.93361 12.4888 2.98917C6.91099 3.74472 2.64433 8.6225 2.87766 14.4558C2.88877 14.4558 2.88877 14.4558 2.88877 14.4669C3.57766 14.1669 4.32211 14.0003 5.11099 14.0003C6.95544 14.0003 8.64433 14.9225 9.66655 16.3892C11.5221 16.9225 12.8888 18.6336 12.8888 20.6669C12.8888 22.3558 11.9221 23.8114 10.5332 24.5669C11.6221 24.9225 12.7888 25.1225 13.9888 25.1225C17.4665 25.1225 20.5665 23.5225 22.611 21.0225C22.8999 20.6669 22.6554 20.1447 22.1999 20.1114C19.4332 19.9669 15.2221 18.4114 12.9999 14.0892Z" fill="#007FFF"/>
<path d="M8.44413 18.4445H8.24413C7.77747 17.1556 6.55524 16.2223 5.1108 16.2223C3.26635 16.2223 1.77747 17.7112 1.77747 19.5556C1.77747 21.4001 3.26635 22.889 5.1108 22.889C5.79969 22.889 7.87747 22.889 8.44413 22.889C9.66636 22.889 10.6664 21.889 10.6664 20.6667C10.6664 19.4445 9.66636 18.4445 8.44413 18.4445Z" fill="#007FFF"/>
</g>
<defs>
<clipPath id="clip0_4_27">
<rect width="26.6667" height="26.6667" fill="white" transform="translate(0.666626 0.666668)"/>
</clipPath>
</defs>
</svg>
