<svg width="40" height="40" viewBox="0 0 40 40" fill="none" xmlns="http://www.w3.org/2000/svg">
<g clip-path="url(#clip0_4_1171)">
<path d="M13.3889 11.2667L12.9556 10.8334C12.5223 10.4001 11.8223 10.4112 11.4001 10.8334L11.3889 10.8445C10.9556 11.2778 10.9556 11.9778 11.3889 12.4001L11.8223 12.8334C12.2556 13.2667 12.9445 13.2667 13.3778 12.8334L13.3889 12.8223C13.8223 12.4001 13.8223 11.6889 13.3889 11.2667ZM10.0112 18.3334H8.87783C8.26672 18.3334 7.77783 18.8223 7.77783 19.4334V19.4445C7.77783 20.0556 8.26672 20.5445 8.87783 20.5445H10.0001C10.6223 20.5556 11.1112 20.0667 11.1112 19.4556V19.4445C11.1112 18.8223 10.6223 18.3334 10.0112 18.3334ZM20.0112 7.27783H20.0001C19.3778 7.27783 18.8889 7.76672 18.8889 8.37783V9.4445C18.8889 10.0556 19.3778 10.5445 19.9889 10.5445H20.0001C20.6223 10.5556 21.1112 10.0667 21.1112 9.45561V8.37783C21.1112 7.76672 20.6223 7.27783 20.0112 7.27783ZM28.6112 10.8445C28.1778 10.4112 27.4778 10.4112 27.0445 10.8334L26.6112 11.2667C26.1778 11.7001 26.1778 12.4001 26.6112 12.8223L26.6223 12.8334C27.0556 13.2667 27.7556 13.2667 28.1778 12.8334L28.6112 12.4001C29.0445 11.9667 29.0445 11.2778 28.6112 10.8445ZM26.6001 27.6223L27.0334 28.0556C27.4667 28.4889 28.1667 28.4889 28.6001 28.0556C29.0334 27.6223 29.0334 26.9223 28.6001 26.4889L28.1667 26.0556C27.7334 25.6223 27.0334 25.6334 26.6112 26.0556C26.1667 26.5001 26.1667 27.1889 26.6001 27.6223ZM28.8889 19.4334V19.4445C28.8889 20.0556 29.3778 20.5445 29.9889 20.5445H31.1112C31.7223 20.5445 32.2112 20.0556 32.2112 19.4445V19.4334C32.2112 18.8223 31.7223 18.3334 31.1112 18.3334H29.9889C29.3778 18.3334 28.8889 18.8223 28.8889 19.4334ZM20.0001 12.7778C16.3223 12.7778 13.3334 15.7667 13.3334 19.4445C13.3334 23.1223 16.3223 26.1112 20.0001 26.1112C23.6778 26.1112 26.6667 23.1223 26.6667 19.4445C26.6667 15.7667 23.6778 12.7778 20.0001 12.7778ZM19.9889 31.6112H20.0001C20.6112 31.6112 21.1001 31.1223 21.1001 30.5112V29.4445C21.1001 28.8334 20.6112 28.3445 20.0001 28.3445H19.9889C19.3778 28.3445 18.8889 28.8334 18.8889 29.4445V30.5112C18.8889 31.1223 19.3778 31.6112 19.9889 31.6112ZM11.3889 28.0445C11.8223 28.4778 12.5223 28.4778 12.9556 28.0445L13.3889 27.6112C13.8223 27.1778 13.8112 26.4778 13.3889 26.0556L13.3778 26.0445C12.9445 25.6112 12.2445 25.6112 11.8112 26.0445L11.3778 26.4778C10.9556 26.9223 10.9556 27.6112 11.3889 28.0445Z" fill="#007FFF"/>
</g>
<defs>
<clipPath id="clip0_4_1171">
<rect width="26.6667" height="26.6667" fill="white" transform="translate(6.66675 6.66667)"/>
</clipPath>
</defs>
</svg>
